<svg width="654" height="570" viewBox="0 0 654 570" fill="none" xmlns="http://www.w3.org/2000/svg">
<path d="M653.101 215.68C647.241 222.43 636.711 216.31 631.381 211.4C630.701 210.77 630.531 209.31 629.691 208.61C627.891 207.12 625.831 207.99 623.791 207.49C621.321 206.87 619.701 204.75 616.591 204.61C615.041 204.54 609.261 206.13 609.061 207.33C608.151 212.82 608.551 218.66 608.111 224.21C605.621 256.06 603.631 288.13 603.041 320.14C602.491 350.1 602.201 380.52 605.881 410.05L586.121 441.21C582.671 443.2 580.001 440.47 577.361 439.91C572.031 438.78 556.471 437.61 553.311 434.47C552.751 433.91 552.261 432.03 552.151 431.14C550.131 414.79 553.561 394.87 552.061 378.13C556.241 346.57 554.771 314.9 553.071 283.21C552.931 280.7 553.601 268.27 553.091 267.69C552.061 266.51 547.091 272.47 545.591 272.69C533.371 284.99 520.761 296.48 508.061 308.16C505.011 310.96 494.891 322.42 493.611 325.71C492.661 328.15 493.461 330.04 493.041 332.14C490.001 347.06 484.711 354.47 479.581 367.68C477.471 373.11 475.281 379.86 473.331 385.43C471.861 389.63 472.911 395.42 465.351 391.91C463.491 391.04 461.661 387.9 461.051 392.16C459.731 401.41 462.681 412.84 463.101 422.16C463.821 437.95 462.191 454.47 463.051 470.21C464.121 489.83 466.981 509.61 468.101 529.16C468.321 532.94 468.191 538.96 465.981 542.11C465.111 543.35 462.081 545.97 461.081 547.38C457.171 552.95 453.411 559.75 449.051 564.97C447.471 566.86 443.961 569.42 441.511 569.7C437.391 570.16 427.031 565.1 421.381 564.98C419.371 564.94 417.141 565.85 414.531 565.74C412.501 565.66 405.681 564.8 405.181 563.07C404.261 559.88 405.371 553.06 405.091 549.16C404.391 539.31 403.841 534.34 404.111 524.23C405.061 488.77 402.121 453.49 403.091 418.21C403.641 398.23 400.301 380.61 399.041 361.21C398.831 357.96 399.981 345.34 398.111 344.14C396.791 343.3 391.541 342.68 389.301 341.95C373.321 336.76 357.641 328.79 340.601 327.65C330.281 326.96 318.701 328.67 308.561 327.69C302.681 327.13 295.551 324.5 289.501 323.75C281.871 322.8 273.561 322.63 265.621 321.62C264.661 321.5 263.231 320.49 263.081 320.67C262.681 321.15 262.951 331.32 263.051 333.19C263.341 338.72 264.891 345.55 265.121 351.12C265.521 360.81 263.071 370.58 264.051 380.19C264.391 383.57 266.851 386.72 265.901 389.96C265.541 391.19 260.731 397.29 259.521 398.61C258.641 399.57 255.611 402.66 254.791 403.38C250.391 407.25 246.681 409.45 240.621 408.61C237.321 408.15 233.311 407.2 229.631 406.61C226.471 406.1 220.111 401.93 219.241 399C217.761 394.02 220.421 384.29 220.101 378.14C219.071 358.42 216.851 338.79 216.591 319.16C216.581 318.1 215.951 316.89 216.031 315.71C195.401 314.42 174.501 311.9 154.851 305.39C150.601 302.47 120.411 291.69 118.071 293.67C117.871 293.84 118.941 295.23 119.031 296.2C120.691 312.76 118.861 331.14 119.011 348.21C119.141 362.01 119.181 376.25 120.041 390.19C120.451 396.91 122.611 404.54 123.091 411.14C124.451 429.91 122.011 450.26 123.041 469.19C123.621 479.82 125.931 490.85 127.011 501.22C127.221 503.24 127.471 509.4 126.591 510.69C125.901 511.7 122.031 513.41 120.561 514.66C118.711 516.25 112.471 522.86 111.571 524.67C110.851 526.11 111.341 527.91 110.081 529.18C109.731 529.54 104.851 531.98 104.091 532.22C100.121 533.45 93.4706 529.35 89.1106 528.1C86.3506 527.31 83.3106 526.73 80.3106 525.9C78.3006 525.35 75.4306 525.15 73.7506 524.46C69.7206 522.81 70.2706 509.38 69.9906 505.22C69.7606 501.78 68.9906 499.32 69.1306 495.22C70.1706 466.22 64.3806 438.51 64.0906 409.12C63.7306 372.7 61.6406 336.41 57.1306 300.07C56.8906 298.14 57.4106 295.88 56.9806 294.22C56.8106 293.56 56.0606 292.61 55.0706 293.14C53.1106 294.2 51.2506 296.39 49.4006 297.49C43.6406 300.93 38.3906 303.57 33.4006 308.49C26.3106 310.8 16.9306 319.64 10.3406 321.43C7.31058 322.25 0.220579 321.44 -0.0094211 318.2C-0.399421 312.87 2.39058 307.61 2.14058 302.24C6.93058 265.03 21.5606 231.05 31.2706 195.37C37.5606 172.27 43.0706 152.38 55.6106 131.72C59.1006 125.97 75.2406 114.97 81.3606 110.01C98.4706 96.16 116.291 81.4 134.111 68.22C146.421 59.11 159.591 51.22 171.691 41.78C187.541 29.41 202.901 13.08 220.691 2.81C229.741 -2.41 232.291 1.07 241.511 1.68C264.431 3.22 287.561 3.05 310.561 4.63C351.221 7.42 392.291 7.68 432.611 13.58C477.481 20.15 523.591 22.78 568.461 29.73C573.491 30.51 591.211 32.31 594.041 34.15C595.051 34.81 595.371 36.79 596.481 37.71C598.011 38.99 601.001 38.98 601.851 39.84C602.801 40.79 602.541 43.45 603.281 44.42C603.761 45.05 606.091 45.81 607.501 47.69C617.871 61.51 618.321 83.98 623.301 99.89C627.451 113.16 632.481 124.35 635.791 138.4C641.181 161.27 647.861 183.97 652.061 207.15L653.041 208.65V211.65L652.221 212.88L653.041 213.65V215.65L653.101 215.68ZM526.811 115.39C528.421 113.68 529.811 110.53 531.571 108.65C547.341 91.88 566.611 74.57 581.091 57.17C582.731 55.2 589.071 46.03 588.921 44.14C588.661 40.75 572.631 41.01 569.671 40.59C563.511 39.73 557.991 37.08 552.361 35.9C520.711 29.27 491.901 27.65 460.521 24.74C449.161 23.69 440.421 21.57 429.501 19.76C392.771 13.69 353.771 15.77 316.631 13.49C303.981 12.71 291.241 10.65 278.621 9.65C266.001 8.65 252.931 10.15 240.551 9.72C236.331 9.57 232.851 7.37 228.361 9.43C226.831 10.13 225.881 11.7 224.441 12.51C205.181 23.42 191.981 38.35 174.381 51.65C160.681 62.01 146.381 70.18 132.591 80.67C114.011 94.81 96.0706 110.23 78.0506 125.09C74.3906 128.11 66.4906 132.33 65.2806 137.37C64.9206 138.86 65.3206 140.53 64.8906 141.98C64.5706 143.05 63.1006 143.99 63.0906 144.17C63.0306 145.67 73.7806 148.4 75.6606 148.59C81.8206 149.21 88.0706 149.07 94.5506 149.7C108.481 151.04 122.771 153.56 136.611 155.64C162.131 159.49 186.881 166.41 212.561 168.69C228.171 170.08 243.911 169.92 259.621 171.63C297.251 175.74 333.871 185.53 371.621 189.63C395.151 192.19 418.811 195.95 442.621 195.68C444.021 194.78 449.831 194.91 450.101 194.65C450.271 194.49 449.501 193.64 449.581 193.16C450.161 189.64 463.321 176.04 466.541 172.63C485.671 152.43 507.961 135.41 526.801 115.36L526.811 115.39ZM592.741 200.36C595.071 198.02 597.071 193.17 601.581 193.63C602.941 193.77 605.591 197.08 606.111 194.17C606.271 193.29 604.301 188.33 604.891 186.39C601.741 158.06 597.031 127.66 597.961 99.16C598.361 86.92 598.351 78.98 595.851 66.44C595.281 63.56 593.391 60.97 594.101 57.68C576.091 76.53 557.441 94.72 539.581 113.65C520.651 133.72 501.631 150.8 482.121 170.22C476.771 175.55 465.131 185.23 461.071 191.14C459.611 193.26 459.721 195.85 458.581 197.65C457.591 199.21 454.361 200.16 454.281 201.14C454.181 202.31 456.601 205.84 456.911 207.37C460.791 226.3 461.051 237.55 468.911 256.37C474.511 269.8 478.261 284.19 481.841 298.44C483.591 305.39 484.331 312.72 486.111 319.68C488.031 320.14 488.041 319 488.931 318.01C501.441 304.19 515.871 289.83 529.431 277.06C539.851 267.25 549.671 259.65 558.791 248.38C569.931 234.61 575.871 218.33 587.651 204.74C588.831 203.38 591.371 201.73 592.731 200.36H592.741ZM620.351 118.5C619.761 117.82 615.401 104.93 614.221 102.06C609.911 91.57 609.901 82.02 606.811 71.46C606.511 70.43 606.511 68.45 605.101 68.68C605.181 75.67 606.451 82.06 606.121 89.2C605.561 101.42 606.051 111.91 607.121 124.15C608.611 141.18 608.441 161.45 612.901 177.37C613.701 180.23 614.461 186.77 615.021 190.25C615.291 191.91 614.851 193.6 615.041 195.07C615.321 197.26 627.951 197.64 630.081 199.18L642.091 205.66L638.891 188.37C629.541 167.94 628.291 145.27 623.901 123.36C623.231 120.02 621.451 119.75 620.341 118.48L620.351 118.5ZM444.041 205.75C441.851 203.89 426.651 204.97 422.581 204.71C402.981 203.46 380.301 200.27 360.541 197.75C329.581 193.81 299.791 185.42 268.641 181.65C240.211 178.21 211.001 178.29 182.871 173.42C165.011 170.33 149.071 165.97 130.641 163.65C119.521 162.25 110.161 159.27 99.5306 157.76C85.9406 155.82 72.0406 158.58 59.6006 151.69L58.1806 158.26C54.6206 176.23 59.8706 192.78 61.1306 210.16C62.6806 231.51 58.9906 253.58 62.1606 275.14C62.3306 276.32 62.8506 277.45 63.2506 278.55C67.5006 278.67 71.5706 281.15 75.6806 281.62C102.191 284.6 121.041 282.08 147.381 291.92C166.691 299.13 178.801 303.1 199.681 305.62C213.021 307.23 226.561 306.59 239.531 307.77C264.131 310.01 290.041 316.29 314.631 317.67C330.111 318.53 345.901 317.67 361.351 321.95C379.201 326.88 393.581 333.79 412.581 335.72C416.331 336.1 422.211 334.9 425.441 335.86C426.991 336.32 429.211 339.77 432.611 340.69C433.041 340.81 433.941 336.86 434.041 336.13C438.881 299.31 436.531 262.67 441.081 226.17C441.461 223.15 445.321 206.84 444.051 205.76L444.041 205.75ZM55.0606 284.6C52.4106 273.81 53.2306 262.37 53.1306 251.16C53.0006 237.41 54.2306 222.16 53.1306 208.16C52.2706 197.38 48.1306 186.19 49.1306 175.16L48.1106 166.69C46.0206 173.96 43.3406 181.1 41.3206 188.41C37.8006 201.14 34.9206 213 30.6406 225.73C24.3006 244.61 19.1006 258.54 15.0206 278.11C12.6906 289.29 10.4306 300.51 8.10058 311.68C9.43058 312.82 22.5006 305.28 24.7906 303.88C28.9506 301.33 32.2106 298.11 35.7506 295.84C41.8706 291.91 48.8006 288.35 55.0606 284.61V284.6ZM592.711 415.34C593.731 413.75 595.241 412.29 595.151 410.24C595.291 365.18 594.561 320.07 596.051 275.14C596.521 260.88 598.301 246.45 599.121 232.21C599.591 224.15 598.731 215.77 599.091 207.69C595.011 210.8 591.161 215.08 588.101 219.19C583.881 224.87 582.661 225.44 583.171 233.12C585.291 265.03 580.971 296.43 580.071 328.17C579.511 347.81 583.911 366.73 585.121 386.17C585.771 396.64 584.611 406.74 586.021 417.27C586.181 418.45 585.941 421.51 586.091 421.69C587.341 423.14 589.381 418.33 590.821 418.41C590.521 415.92 592.411 415.79 592.701 415.35L592.711 415.34ZM457.431 247.42C453.671 243.14 452.191 225.8 451.091 219.69C449.841 219.4 449.441 221.59 449.321 222.41C446.531 240.84 446.061 257.57 445.111 276.22C444.221 293.85 442.811 312.26 442.071 330.17C441.911 334.1 443.631 346.78 440.461 348.75C437.631 350.51 436.101 349.18 433.531 348.75C432.321 348.55 430.201 348.4 431.101 350.19C432.231 352.44 437.461 355.52 438.571 358.72C443.491 364.81 449.401 367.63 455.421 371.87C457.141 373.08 466.631 381.7 468.091 379.7C468.301 379.41 469.061 374.22 469.601 372.7C472.761 363.91 478.031 354.54 480.651 345.75C481.241 343.76 483.361 334.62 483.111 333.21C482.841 331.66 481.501 330.95 481.231 329.98C480.891 328.72 481.901 327.54 481.831 326.34C481.551 321.52 476.231 306.14 474.581 300.7C471.031 289 469.871 277.44 466.881 266.4C465.651 261.86 460.691 256.4 459.521 252.76C458.351 249.12 459.861 250.21 457.421 247.43L457.431 247.42ZM577.101 428.69C578.461 427.33 576.041 394.97 577.121 390.16C570.721 343.67 573.171 295.93 576.141 249.23C576.321 246.42 577.011 240.84 574.101 239.68C571.351 245.08 567.001 250.33 563.081 254.98C562.461 255.71 561.511 255.65 561.071 256.34C559.521 258.8 561.711 259.81 562.071 262.21C562.741 266.7 561.751 272.47 562.071 277.21C563.201 294.29 565.591 310.89 565.121 328.21C564.311 358.28 559.891 387.89 562.121 418.16C562.251 419.93 561.751 427.36 562.121 427.66C562.371 427.87 567.571 428.62 568.581 428.7C569.941 428.82 576.801 428.98 577.101 428.68V428.69ZM56.1006 255.69C55.3106 255.04 53.3106 256.03 54.1106 256.68C54.9106 257.33 56.9006 256.34 56.1006 255.69ZM91.1006 291.68C90.9406 291.53 87.8406 291.77 86.6806 291.61C80.9606 290.79 76.5106 290.12 70.6606 289.62C69.0006 289.48 65.8206 287.05 66.0606 290.21C66.1706 291.73 67.0106 293.05 67.0706 294.28C68.3606 320.69 71.2006 347.56 73.1206 374.17C74.3606 391.27 71.6106 410.26 73.0706 427.22C74.2706 441.09 78.3706 455.31 79.1206 469.17C79.7906 481.59 77.7606 496.1 79.1706 508.12C79.3106 509.31 80.9506 517.16 81.2306 517.55C82.4206 519.24 96.3306 519.96 99.0906 521.69C99.9606 517.74 98.2506 513.71 98.0706 510.21C96.4006 476.92 96.5006 444.54 93.0206 411.26C90.3106 385.32 92.4506 365.67 93.1406 340.24C93.4406 329.29 91.8806 321.45 91.0706 311.22C90.8206 308.11 91.8106 292.37 91.1006 291.69V291.68ZM111.081 292.7C110.831 292.49 105.671 291.76 104.621 291.66C103.501 291.55 100.221 291.28 100.091 292.23C99.7006 295.07 99.9106 300.18 100.081 303.21C101.481 328.5 101.291 350.79 101.131 376.21C100.931 408.78 105.731 440.64 107.131 473.16C107.621 484.49 107.101 494.69 108.131 506.16C108.361 508.69 106.921 517.06 111.051 513.01C114.761 509.37 118.671 508 116.071 502.21C112.481 474.51 115.991 446.03 114.131 418.16C113.151 403.54 109.341 388.21 110.081 373.16C111.021 354.16 110.601 335.28 111.151 316.23C111.241 313.01 112.001 293.45 111.081 292.7ZM240.041 317.74C238.941 316.8 225.631 316.14 225.101 316.68C224.201 317.58 225.871 338.59 226.171 342.11C227.011 351.94 229.471 362.6 230.131 372.15C230.721 380.71 228.791 389.12 229.121 397.66C231.401 397.03 240.031 401.07 241.091 399.67C241.501 399.13 243.041 387.99 243.151 386.22C243.671 378.35 241.601 372.45 241.081 365.2C240.491 357.1 240.361 348.26 240.081 340.2C239.961 336.83 240.901 318.47 240.041 317.74ZM254.111 319.69C253.961 319.54 250.291 318.5 250.111 318.69C249.741 319.07 250.231 327.34 250.131 329.21C249.491 341 250.271 353.21 251.081 365.21C251.591 372.75 253.721 380.64 253.151 388.23C253.061 389.47 251.761 392.29 252.111 392.69C253.021 393.71 254.841 391.51 255.341 390.43C257.231 386.34 255.221 384.64 255.091 381.22C254.601 369.16 256.081 356.02 255.141 344.17C254.591 337.18 252.531 331.91 253.081 324.16C253.171 322.96 254.401 319.97 254.121 319.7L254.111 319.69ZM417.981 345.8C417.571 345.52 408.451 344.33 408.101 344.68C407.951 344.83 408.231 345.63 408.071 346.19C409.451 353.78 409.491 361.58 410.071 369.2C412.831 405.07 411.971 441.11 413.071 477.2C413.551 492.92 414.421 507.42 414.051 523.13C413.921 528.65 414.881 533.18 415.121 538.15C415.291 541.5 414.381 553 415.541 554.73C416.701 556.46 421.261 555.43 423.521 555.75C426.751 556.2 432.631 558.17 435.501 557.73C438.371 557.29 436.131 548.85 436.071 547.2C435.271 524.96 436.621 504.1 437.121 482.2C437.791 453.16 434.731 424.19 434.061 395.12C433.891 387.59 432.861 379.71 433.071 372.15C433.111 370.8 434.121 369.2 433.941 368.3C433.711 367.11 427.151 361.53 425.671 359.61C423.671 357.02 421.601 353.28 419.911 350.37C419.281 349.29 418.181 345.94 417.971 345.8H417.981ZM446.101 549.68C449.121 547.34 455.521 541.17 456.651 537.74C457.781 534.31 457.261 524.28 457.121 520.16C456.561 504.25 453.941 488.17 453.071 472.21C452.131 454.91 454.361 436.31 453.121 419.16C452.391 409.03 450.551 401.02 451.071 390.16C451.211 387.18 453.701 382.8 451.091 380.19C450.721 379.82 442.431 374.28 442.101 374.69C441.141 375.85 443.351 390.72 443.121 394.22C441.971 411.33 444.021 424.45 445.141 441.15C447.371 474.16 442.661 508.65 445.071 542.22C445.241 544.66 446.621 547.04 446.101 549.7V549.68Z" fill="black"/>
</svg>
