<svg preserveAspectRatio="xMidYMid meet" width="369" height="113" overflow="visible" style="display: block;" viewBox="0 0 369 113" fill="none" xmlns="http://www.w3.org/2000/svg">
<g id="Frame 4983">
<path id="Union" d="M27.0362 83.3296C27.0362 90.7472 27.4819 94.0615 30.8986 94.0615C34.3152 94.0615 34.9094 90.7472 34.9094 83.3296V0H61.9457V77.0168C61.9457 98.4805 55.558 113 30.8986 113C6.23913 113 0 98.4805 0 77.0168V0H27.0362V83.3296ZM140.678 0.157821V26.4082C145.436 20.8766 149.822 18.3073 157.612 18.3073C169.793 18.3073 174.399 25.2514 174.399 40.2444V88.2221C174.399 104.635 168.159 112.053 156.275 112.053C149.9 112.053 145.18 109.774 139.987 103.629L139.192 110.475H114.978V0L140.678 0.157821ZM339.587 18.3073C356.373 18.3073 369 27.1153 369 44.5751V85.7852C369 103.245 356.522 112.053 339.736 112.053C322.949 112.053 310.322 103.245 310.322 85.7852V44.5751C310.322 27.1153 322.949 18.3073 339.587 18.3073ZM209.605 18.1494C240.058 18.1494 238.424 39.771 238.424 54.764V87.5908C238.424 95.1662 238.572 102.899 239.464 110.475H214.359C214.038 107.281 213.949 104.004 213.924 100.764C210.773 107.691 206.777 111.895 197.572 111.895C183.163 111.895 179.004 101.006 179.004 88.6955C179.004 71.3352 186.134 66.4427 195.79 60.919C207.674 54.1327 213.17 53.6592 213.17 41.8226C213.17 36.9302 212.279 34.2472 209.457 34.2472C206.634 34.2472 205 35.9832 205 41.0335V49.8715H180.489V48.1355C180.489 26.514 191.482 18.1494 209.605 18.1494ZM109.482 50.345H105.025C98.192 50.345 94.1812 54.9218 94.1812 64.3911V110.475L68.1848 110.317V19.7277H94.1812L93.1903 31.3953C96.962 23.0577 103.299 18.4651 108.442 18.4651H109.482V50.345ZM287.297 18.3073C299.478 18.3073 304.083 25.2514 304.083 40.2444V110.475H278.384V41.507C278.384 35.8254 277.493 34.0894 274.819 34.0894C271.699 34.0894 270.511 36.9302 270.511 41.8226V110.475H244.663V19.7277L270.362 19.8855V28.2075C274.915 21.3722 280.496 18.3073 287.297 18.3073ZM144.688 37.088C142.014 37.088 140.826 39.6131 140.826 44.5056V88.6955C140.826 93.588 142.014 96.1131 144.688 96.1131C147.808 96.1131 148.551 94.3771 148.699 88.6955V44.5056C148.699 38.824 147.808 37.088 144.688 37.088ZM213.764 64.6847C207.423 69.473 204.851 72.7414 204.851 80.4888V84.9078C204.851 92.3254 205.891 96.1131 208.862 96.1131C212.428 96.1131 213.764 92.4832 213.764 86.0126V64.6847ZM339.438 34.2472C336.022 34.2472 335.576 36.9207 335.576 41.7974V88.563C335.576 93.4397 336.022 96.1131 339.438 96.1131C342.855 96.1131 343.301 93.4397 343.301 88.563V41.7974C343.152 36.9207 342.855 34.2472 339.438 34.2472Z" fill="var(--fill-0, black)"/>
</g>
</svg>
