<svg preserveAspectRatio="xMidYMid meet" width="1680" height="290.524" overflow="visible" style="display: block;" viewBox="0 0 1680 290.524" fill="none" xmlns="http://www.w3.org/2000/svg">
<path id="Union" d="M72.2325 215.908C72.2325 234.562 73.4231 242.897 82.5514 242.897C91.6797 242.897 93.2672 234.562 93.2672 215.908V6.35024H165.5V200.033C165.5 254.01 148.434 290.524 82.5514 290.524C16.669 290.524 0 254.01 0 200.033V6.35024H72.2325V215.908ZM1152.54 0C1216.44 0 1235.49 36.5139 1235.49 90.491V131.768H1163.26V74.6153C1163.26 54.374 1161.67 47.6268 1153.34 47.6268C1143.81 47.6268 1142.23 56.7553 1142.23 74.6153V215.908C1142.23 234.562 1143.42 242.897 1152.54 242.897C1161.67 242.897 1163.26 234.562 1163.26 215.908V165.106H1235.49V200.033C1235.49 254.01 1218.43 290.524 1152.54 290.524C1086.66 290.524 1069.99 254.01 1069.99 200.033V90.491C1069.99 36.5139 1086.66 0 1152.54 0ZM375.847 6.74713V72.7619C388.559 58.8509 400.279 52.3895 421.091 52.3895C453.636 52.3895 465.939 69.8527 465.939 107.557V228.212C465.939 269.488 449.27 288.142 417.519 288.142C400.485 288.142 387.876 282.411 374.001 266.956L371.878 284.173H307.186V6.35024L375.847 6.74713ZM907.271 52.3895C952.119 52.3895 985.854 74.5401 985.854 118.448V222.084C985.854 265.992 952.516 288.142 907.668 288.142C862.821 288.142 829.086 265.992 829.086 222.084V118.448C829.086 74.5401 862.821 52.3895 907.271 52.3895ZM1600.62 52.3895C1639.91 52.3895 1679.21 75.4091 1679.21 124.624V172.647H1589.86L1589.51 222.258C1589.51 238.928 1591.5 248.056 1601.42 248.056C1610.55 248.056 1614.51 240.912 1614.51 222.258V188.92H1680V219.877C1680 261.948 1643.49 288.142 1601.42 288.142C1556.57 288.142 1520.45 268.695 1520.45 211.542V127.402C1520.45 74.2185 1554.98 52.3895 1600.62 52.3895ZM560 51.9926C641.361 51.9926 636.995 106.367 636.995 144.071V226.624C636.995 245.675 637.392 265.123 639.773 284.173H572.7C571.843 276.14 571.605 267.901 571.537 259.753C563.12 277.172 552.443 287.745 527.853 287.745C489.355 287.745 478.242 260.36 478.242 229.403C478.242 185.745 497.293 173.441 523.09 159.55C554.841 142.484 569.525 141.293 569.525 111.526C569.525 99.2225 567.144 92.4754 559.603 92.4754C552.062 92.4754 547.697 96.8412 547.697 109.542V131.768H482.211V127.402C482.211 73.0278 511.58 51.9926 560 51.9926ZM1329.55 51.9926C1410.91 51.9926 1406.55 106.367 1406.55 144.071V226.624C1406.55 245.675 1406.95 265.123 1409.33 284.173H1342.25C1341.4 276.14 1341.16 267.901 1341.09 259.753C1332.67 277.172 1322 287.745 1297.41 287.745C1258.91 287.745 1247.8 260.36 1247.8 229.403C1247.8 185.745 1266.85 173.441 1292.64 159.55C1324.39 142.484 1339.08 141.293 1339.08 111.526C1339.08 99.2225 1336.7 92.4754 1329.16 92.4754C1321.62 92.4754 1317.25 96.8412 1317.25 109.542V131.768H1251.76V127.402C1251.76 73.0278 1281.13 51.9926 1329.55 51.9926ZM292.502 132.958H280.595C262.339 132.958 251.623 144.468 251.623 168.281V284.173L182.169 283.776V55.9615H251.623L248.976 85.3035C259.053 64.3358 275.984 52.7864 289.724 52.7864H292.502V132.958ZM767.569 52.3895C800.113 52.3895 812.417 69.8527 812.417 107.557V284.173H743.756V110.732C743.756 96.4443 741.375 92.0785 734.231 92.0785C725.897 92.0785 722.721 99.2225 722.721 111.526V284.173H653.664V55.9615L722.325 56.3584V77.2866C734.489 60.0973 749.4 52.3895 767.569 52.3895ZM1514.9 41.6735H1500.21C1488.31 41.6735 1485.53 43.6579 1485.53 55.9615V61.9149H1514.9V98.0319H1498.23V284.173H1428.77V98.0319H1414.49V61.9149H1428.77V45.2455C1428.77 19.8445 1443.06 6.35024 1476.8 6.35024H1514.9V41.6735ZM386.563 99.6194C379.419 99.6194 376.244 105.97 376.244 118.273V229.403C376.244 241.706 379.419 248.056 386.563 248.056C394.897 248.056 396.882 243.691 397.279 229.403V118.273C397.279 103.985 394.897 99.6194 386.563 99.6194ZM571.113 169.02C554.17 181.061 547.3 189.281 547.3 208.764V219.877C547.3 238.531 550.078 248.056 558.016 248.056C567.541 248.056 571.113 238.928 571.113 222.655V169.02ZM906.875 92.4754C897.746 92.4754 896.556 99.1987 896.556 111.463V229.069C896.556 241.333 897.746 248.056 906.875 248.056C916.003 248.056 917.193 241.333 917.193 229.069V111.463C916.797 99.1987 916.003 92.4754 906.875 92.4754ZM1339.08 169.02C1322.14 181.061 1315.27 189.281 1315.27 208.764V219.877C1315.27 238.531 1318.04 248.056 1325.98 248.056C1335.51 248.056 1339.08 238.928 1339.08 222.655V169.02ZM1601.02 92.4754C1593.08 92.4754 1590.3 98.4288 1590.3 108.351L1590.1 137.324H1610.55V107.954C1610.55 98.4288 1608.16 92.4754 1601.02 92.4754Z" fill="var(--fill-0, black)"/>
</svg>
